<?xml version="1.0" standalone="no"?>
<!DOCTYPE svg PUBLIC "-//W3C//DTD SVG 20010904//EN"
 "http://www.w3.org/TR/2001/REC-SVG-20010904/DTD/svg10.dtd">
<svg version="1.0" xmlns="http://www.w3.org/2000/svg"
 viewBox="0 0 2600.000000 2600.000000"
 preserveAspectRatio="xMidYMid meet">
<metadata>
Created by potrace 1.15, written by Peter Selinger 2001-2017
</metadata>
<g transform="translate(0.000000,2600.000000) scale(0.100000,-0.100000)"
fill="#000000" stroke="none">
<path d="M10370 18273 c-412 -28 -786 -117 -1200 -283 -770 -309 -1728 -1161
-2542 -2260 -749 -1012 -1451 -2338 -1998 -3775 -156 -409 -679 -2261 -919
-3251 -136 -562 -280 -1262 -283 -1377 -2 -58 90 -117 285 -183 463 -158 1251
-248 1555 -179 118 27 114 20 182 320 406 1798 925 3587 1380 4760 279 719
527 1202 937 1825 919 1394 1836 2239 2613 2406 120 26 404 26 510 1 41 -10
93 -26 115 -36 96 -43 249 -220 382 -441 341 -570 564 -1480 634 -2587 14
-223 6 -1721 -10 -2013 -25 -431 -51 -745 -87 -1026 l-17 -132 -86 -32 c-246
-93 -427 -223 -490 -352 -39 -81 -42 -138 -39 -621 3 -445 4 -464 24 -514 78
-190 317 -343 698 -448 393 -107 920 -134 1366 -69 452 66 828 224 975 412 82
104 80 90 80 662 l0 505 -32 65 c-71 143 -258 278 -505 365 l-78 28 5 36 c9
60 54 504 69 686 79 898 92 1922 35 2690 -47 633 -148 1252 -291 1775 -171
628 -474 1289 -797 1743 -527 739 -1148 1157 -1887 1271 -188 30 -417 41 -584
29z"/>
<path d="M17830 10650 c-275 -26 -579 -89 -766 -158 -262 -98 -437 -221 -510
-363 -40 -75 -40 -169 -2 -252 192 -411 1255 -650 2208 -495 425 68 777 218
928 394 62 73 86 128 90 212 4 66 1 79 -28 138 -118 241 -554 436 -1140 509
-148 19 -639 28 -780 15z"/>
<path d="M10740 9879 c-586 -346 -1287 -761 -1559 -921 -315 -186 -488 -294
-480 -298 8 -4 2395 -749 5306 -1654 l5291 -1648 1630 1154 c1212 857 1625
1155 1613 1161 -9 4 -594 176 -1301 382 -707 207 -1293 378 -1303 381 -16 5
-17 -30 -17 -688 1 -767 3 -739 -65 -853 -168 -280 -665 -488 -1314 -550 -179
-17 -543 -20 -728 -5 -274 23 -596 90 -805 168 -348 131 -559 313 -607 522 -6
27 -11 223 -11 501 l0 457 -62 -20 c-121 -38 -258 -9 -364 77 -55 45 -119 173
-136 272 -9 56 -9 85 1 139 25 137 45 159 325 360 l236 169 -2 244 -3 243
-1195 349 c-657 192 -1201 349 -1207 349 -7 0 -13 -8 -13 -19 0 -13 14 -24 48
-36 151 -57 324 -167 410 -260 63 -69 114 -160 131 -235 17 -72 14 -1042 -3
-1105 -21 -82 -62 -151 -133 -225 -210 -223 -612 -374 -1158 -436 -200 -22
-585 -22 -793 0 -634 68 -1108 280 -1253 560 -22 43 -40 66 -51 66 -17 0 -18
35 -18 590 0 515 2 590 15 590 8 0 28 26 44 58 79 156 240 286 481 387 67 28
92 43 95 59 8 36 35 280 35 314 0 18 -3 32 -7 31 -5 0 -487 -284 -1073 -630z"/>
<path d="M19735 9628 c-169 -165 -520 -308 -930 -378 -449 -77 -1075 -62
-1470 35 -33 8 -66 14 -74 15 -8 0 17 -28 54 -62 119 -109 170 -215 163 -336
-5 -88 -36 -153 -107 -220 -31 -29 -234 -180 -451 -336 l-395 -282 0 -500 0
-499 27 -58 c110 -235 510 -425 1063 -507 523 -76 1127 -33 1570 112 329 108
558 281 594 448 13 59 16 2611 4 2609 -5 -1 -26 -19 -48 -41z"/>
<path d="M16520 9375 c0 -157 4 -285 8 -285 5 0 77 50 162 110 196 141 211
150 272 164 l51 11 -59 24 c-140 56 -268 133 -373 223 -24 21 -48 38 -52 38
-5 0 -9 -128 -9 -285z"/>
<path d="M16908 9187 c-35 -24 -252 -179 -483 -345 -463 -333 -456 -327 -463
-439 -8 -119 62 -253 152 -294 54 -25 151 -25 215 0 60 23 862 594 942 671 73
71 89 119 65 197 -41 130 -195 253 -316 253 -41 0 -59 -7 -112 -43z"/>
</g>
</svg>
